<svg width="31" height="31" viewBox="0 0 31 31" fill="none" xmlns="http://www.w3.org/2000/svg">
<path d="M30.1182 8.25626L30.3024 7.79145L30.6182 7.9166V8.25626H30.1182ZM30.1182 21.8804H30.6182V22.2269L30.2938 22.3486L30.1182 21.8804ZM13.1688 28.2384L13.3444 28.7065L13.1605 28.7755L12.9789 28.7009L13.1688 28.2384ZM0.999985 9.61868H0.499985V9.2754L0.820345 9.15207L0.999985 9.61868ZM17.5148 3.26074L17.3351 2.79413L17.5174 2.72395L17.699 2.79592L17.5148 3.26074ZM0.999985 23.2428L0.810102 23.7054L0.499985 23.5781V23.2428H0.999985ZM30.6182 8.25626V21.8804H29.6182V8.25626H30.6182ZM13.6688 14.6142V28.2384H12.6688V14.6142H13.6688ZM12.9932 14.1461L29.9426 7.78812L30.2938 8.72441L13.3444 15.0823L12.9932 14.1461ZM0.820345 9.15207L17.3351 2.79413L17.6944 3.72736L1.17962 10.0853L0.820345 9.15207ZM12.9932 27.7702L29.9426 21.4123L30.2938 22.3486L13.3444 28.7065L12.9932 27.7702ZM1.49998 9.61868V23.2428H0.499985V9.61868H1.49998ZM12.9789 15.0767L0.810102 10.0812L1.18987 9.15614L13.3587 14.1517L12.9789 15.0767ZM29.9339 8.72108L17.3305 3.72556L17.699 2.79592L30.3024 7.79145L29.9339 8.72108ZM12.9789 28.7009L0.810102 23.7054L1.18987 22.7803L13.3587 27.7758L12.9789 28.7009Z" fill="black"/>
<path d="M4 18.5V14.5L10 17V21L4 18.5Z" stroke="black"/>
<path d="M1 23L17.4478 16.9545M17.4478 16.9545V4M17.4478 16.9545L30 21.7045" stroke="black" stroke-linecap="round" stroke-dasharray="2 2"/>
<path d="M22.5 25V14.5L26.5 13V23.5" stroke="black"/>
</svg>
