<svg width="24" height="24" viewBox="0 0 24 24" fill="none" xmlns="http://www.w3.org/2000/svg">
<g clip-path="url(#clip0)">
<path d="M0.835849 7.25391C1.29757 7.25391 1.6717 6.87967 1.6717 6.41806V2.85423L7.05512 8.23653C7.21839 8.39969 7.43225 8.48127 7.64612 8.48127C7.8601 8.48127 8.07407 8.39969 8.23723 8.23642C8.56366 7.91 8.56366 7.38074 8.23712 7.05442L2.85348 1.672H6.41809C6.8797 1.672 7.25394 1.29777 7.25394 0.836154C7.25394 0.374542 6.87981 0.000305176 6.41809 0.000305176H0.835849C0.374126 0.000305176 0 0.374542 0 0.836154V6.41817C0 6.87967 0.374126 7.25391 0.835849 7.25391Z" fill="black"/>
<path d="M23.164 16.7462C22.7023 16.7462 22.3281 17.1205 22.3281 17.5821V21.146L16.779 15.5969C16.4524 15.2704 15.9233 15.2704 15.5969 15.5969C15.2704 15.9233 15.2704 16.4526 15.5969 16.7789L21.1459 22.3279H17.5822C17.1205 22.3279 16.7463 22.7021 16.7463 23.1638C16.7463 23.6254 17.1205 23.9996 17.5822 23.9996H23.1641C23.6258 23.9996 23.9999 23.6254 23.9999 23.1638V17.5821C23.9998 17.1205 23.6256 16.7462 23.164 16.7462Z" fill="black"/>
<path d="M7.22077 15.5968L1.67219 21.1459V17.582C1.67219 17.1204 1.29806 16.7462 0.836337 16.7462C0.374614 16.7462 0.000488281 17.1204 0.000488281 17.582V23.1639C0.000488281 23.6255 0.374614 23.9998 0.836337 23.9998H6.41802C6.87963 23.9998 7.25387 23.6255 7.25387 23.1639C7.25387 22.7023 6.87975 22.3281 6.41802 22.3281H2.85419L8.40288 16.7788C8.72931 16.4524 8.72931 15.9231 8.40277 15.5967C8.07657 15.2704 7.54731 15.2704 7.22077 15.5968Z" fill="black"/>
<path d="M23.164 0.000244141H17.5821C17.1203 0.000244141 16.7462 0.374481 16.7462 0.836093C16.7462 1.2977 17.1203 1.67194 17.5821 1.67194H21.146L15.7634 7.05492C15.4369 7.38135 15.4369 7.9106 15.7635 8.23703C15.9266 8.40019 16.1406 8.48177 16.3545 8.48177C16.5683 8.48177 16.7823 8.40008 16.9456 8.23692L22.3282 2.85394V6.418C22.3282 6.87961 22.7023 7.25385 23.1641 7.25385C23.6258 7.25385 23.9999 6.87961 23.9999 6.418V0.836093C23.9998 0.37437 23.6256 0.000244141 23.164 0.000244141Z" fill="black"/>
</g>
<defs>
<clipPath id="clip0">
<rect width="24" height="24" fill="white"/>
</clipPath>
</defs>
</svg>
