<svg width="24" height="24" viewBox="0 0 24 24" fill="none" xmlns="http://www.w3.org/2000/svg">
<path d="M10.712 10.2192V6.56619C10.712 6.2947 10.4919 6.07458 10.2203 6.07458C9.94872 6.07458 9.72856 6.2947 9.72856 6.56619V9.03231L1.83937 1.14307C1.64733 0.95117 1.33611 0.95117 1.14411 1.14307C0.951963 1.33527 0.951963 1.64653 1.14411 1.83853L9.06679 9.76118H6.53362C6.26208 9.76118 6.04187 9.98139 6.04187 10.2529C6.04187 10.5246 6.26208 10.7446 6.53362 10.7446H10.2203C10.4919 10.7446 10.712 10.5246 10.712 10.2529V10.2198V10.2192Z" fill="black" stroke="black" stroke-width="0.1"/>
<path d="M22.8728 23.6006L14.9834 15.7115V18.1774C14.9834 18.449 14.7632 18.669 14.4917 18.669C14.2202 18.669 14 18.449 14 18.1774V14.5245V14.524V14.4908C14 14.2192 14.2202 13.999 14.4917 13.999H18.1784C18.4499 13.999 18.6702 14.2192 18.6702 14.4908C18.6702 14.7623 18.4499 14.9824 18.1784 14.9824H15.6452L23.5681 22.9054C23.7602 23.0974 23.7602 23.4086 23.5681 23.6006C23.376 23.7927 23.0648 23.7927 22.8728 23.6006Z" fill="black" stroke="black" stroke-width="0.1"/>
</svg>
