<svg width="24" height="26" viewBox="0 0 24 26" fill="none" xmlns="http://www.w3.org/2000/svg">
<g clip-path="url(#clip0)">
<path d="M6.99146 0.962036H5.75882C4.47436 0.962036 3.42944 2.01018 3.42944 3.2986V22.6995C3.42944 23.988 4.47436 25.0362 5.75882 25.0362H6.99146C8.27592 25.0362 9.32091 23.988 9.32091 22.6995V3.2986C9.32083 2.01018 8.27584 0.962036 6.99146 0.962036ZM8.25077 22.6995C8.25077 23.396 7.68578 23.9627 6.99138 23.9627H5.75882C5.06442 23.9627 4.49951 23.396 4.49951 22.6995V3.2986C4.49951 2.60206 5.06442 2.0354 5.75882 2.0354H6.99146C7.68585 2.0354 8.25085 2.60206 8.25085 3.2986V22.6995H8.25077Z" fill="black" stroke="black" stroke-width="0.2"/>
<path d="M17.6827 0.962036H16.4501C15.1656 0.962036 14.1206 2.01018 14.1206 3.2986V22.6995C14.1206 23.988 15.1656 25.0362 16.4501 25.0362H17.6827C18.9672 25.0362 20.0121 23.988 20.0121 22.6995V3.2986C20.0121 2.01018 18.9672 0.962036 17.6827 0.962036ZM18.942 22.6995C18.942 23.396 18.3771 23.9627 17.6827 23.9627H16.4501C15.7557 23.9627 15.1907 23.396 15.1907 22.6995V3.2986C15.1907 2.60206 15.7557 2.0354 16.4501 2.0354H17.6827C18.3771 2.0354 18.942 2.60206 18.942 3.2986V22.6995Z" fill="black" stroke="black" stroke-width="0.2"/>
</g>
<defs>
<clipPath id="clip0">
<rect width="24" height="26" fill="white" transform="translate(0 -0.000976562)"/>
</clipPath>
</defs>
</svg>
