<svg width="25" height="25" viewBox="0 0 25 25" fill="none" xmlns="http://www.w3.org/2000/svg">
<g clip-path="url(#clip0)">
<path d="M13.6489 1.64023C13.1799 1.37498 12.6249 1.38362 12.1641 1.66137C12.142 1.67434 12.1209 1.68972 12.1016 1.70606L5.59047 7.21436H0.480529C0.214796 7.21436 0 7.42916 0 7.69489V16.8249C0 16.9528 0.0504555 17.0748 0.140795 17.1647C0.231134 17.2545 0.352708 17.3055 0.480529 17.3055L5.57894 17.3031L12.0867 23.2808C12.1108 23.303 12.1367 23.3222 12.1641 23.3385C12.4005 23.4812 12.6624 23.5528 12.9243 23.5528C13.1727 23.5523 13.4207 23.4884 13.6489 23.3597C14.129 23.0886 14.4159 22.5937 14.4159 22.0358V2.96457C14.4159 2.40667 14.129 1.91173 13.6489 1.64023ZM13.4548 22.0358C13.4548 22.2429 13.3505 22.425 13.1766 22.5235C13.1021 22.5653 12.9133 22.6461 12.6961 22.536L6.24688 16.6116V14.4223C6.24688 14.1566 6.03208 13.9418 5.76635 13.9418C5.50062 13.9418 5.28582 14.1566 5.28582 14.4223V16.3425L0.961058 16.3444V8.17542H5.28582V10.0975C5.28582 10.3633 5.50062 10.5781 5.76635 10.5781C6.03208 10.5781 6.24688 10.3633 6.24688 10.0975V7.91786L12.6884 2.46866C12.9099 2.35237 13.1016 2.43502 13.1766 2.47731C13.3505 2.57582 13.4548 2.75794 13.4548 2.96457V22.0358Z" fill="black" stroke="black" stroke-width="0.2"/>
<path d="M18.6429 3.39563C18.3916 3.31057 18.1186 3.44512 18.0331 3.69644C17.948 3.94727 18.0826 4.22069 18.3339 4.30623C21.7461 5.46478 24.0387 8.66126 24.0387 12.2604C24.0387 15.8562 21.7505 19.0532 18.3449 20.2151C18.0941 20.3006 17.9596 20.5736 18.0456 20.8254C18.1138 21.0248 18.3003 21.1507 18.5002 21.1507C18.5516 21.1507 18.6039 21.1425 18.6554 21.1247C22.4496 19.8307 24.9993 16.2685 24.9993 12.2609C24.9998 8.24897 22.4453 4.68681 18.6429 3.39563Z" fill="black" stroke="black" stroke-width="0.2"/>
<path d="M20.6753 12.2601C20.6753 9.39035 18.7488 6.82913 15.9906 6.03145C15.7345 5.95889 15.4697 6.10449 15.3957 6.36013C15.3222 6.61481 15.4687 6.8815 15.7244 6.95502C18.0737 7.63401 19.7147 9.81561 19.7147 12.2601C19.7147 14.7045 18.0737 16.8861 15.7244 17.5651C15.4692 17.6386 15.3222 17.9053 15.3957 18.16C15.4567 18.3705 15.6484 18.5074 15.8575 18.5074C15.9017 18.5074 15.9464 18.5012 15.9906 18.4887C18.7493 17.691 20.6753 15.1298 20.6753 12.2601Z" fill="black" stroke="black" stroke-width="0.2"/>
</g>
<defs>
<clipPath id="clip0">
<rect width="25" height="25" fill="white" transform="translate(0 0.00012207)"/>
</clipPath>
</defs>
</svg>
