<svg width="25" height="23" viewBox="0 0 25 23" fill="none" xmlns="http://www.w3.org/2000/svg">
<path d="M21.4882 11.0359L24.8646 7.65953C25.0456 7.47852 25.0456 7.18592 24.8646 7.0049C24.6835 6.82389 24.3909 6.82389 24.2099 7.0049L20.8335 10.3813L17.4571 7.0049C17.2761 6.82389 16.9835 6.82389 16.8025 7.0049C16.6215 7.18592 16.6215 7.47852 16.8025 7.65953L20.1789 11.0359L16.8025 14.4123C16.6215 14.5933 16.6215 14.8859 16.8025 15.0669C16.8928 15.1572 17.0113 15.2026 17.1298 15.2026C17.2483 15.2026 17.3669 15.1572 17.4571 15.0669L20.8335 11.6906L24.2099 15.0669C24.3002 15.1572 24.4187 15.2026 24.5372 15.2026C24.6558 15.2026 24.7743 15.1572 24.8646 15.0669C25.0456 14.8859 25.0456 14.5933 24.8646 14.4123L21.4882 11.0359Z" fill="black" stroke="black" stroke-width="0.2"/>
<path d="M13.15 1.036C12.6986 0.780441 12.1634 0.788774 11.7194 1.05637C11.6981 1.06887 11.6778 1.08368 11.6593 1.09942L5.38611 6.40637H0.462963C0.206944 6.40637 0 6.61331 0 6.86933V15.6656C0 15.7888 0.0486111 15.9064 0.135648 15.9929C0.222685 16.0795 0.339815 16.1286 0.462963 16.1286L5.375 16.1263L11.6449 21.8855C11.6681 21.9068 11.6931 21.9253 11.7194 21.9411C11.9472 22.0786 12.1995 22.1476 12.4519 22.1476C12.6912 22.1471 12.9301 22.0855 13.15 21.9615C13.6125 21.7003 13.8889 21.2235 13.8889 20.686V2.31192C13.8889 1.77442 13.6125 1.29757 13.15 1.036ZM12.963 20.686C12.963 20.8855 12.8625 21.061 12.6949 21.1559C12.6231 21.1962 12.4412 21.274 12.2319 21.1679L6.01852 15.4601V13.3508C6.01852 13.0948 5.81157 12.8878 5.55556 12.8878C5.29954 12.8878 5.09259 13.0948 5.09259 13.3508V15.2008L0.925926 15.2027V7.33229H5.09259V9.18414C5.09259 9.44016 5.29954 9.64711 5.55556 9.64711C5.81157 9.64711 6.01852 9.44016 6.01852 9.18414V7.08414L12.2245 1.83414C12.4375 1.72211 12.6227 1.80174 12.6949 1.84248C12.8625 1.93739 12.963 2.11239 12.963 2.31192V20.686Z" fill="black" stroke="black" stroke-width="0.2"/>
</svg>
