<svg width="15" height="19" viewBox="0 0 15 19" fill="none" xmlns="http://www.w3.org/2000/svg">
<path d="M12.5969 9.01562H14.2844C14.2844 10.7031 13.6906 12.1875 12.5031 13.4688C11.3469 14.7188 9.94063 15.4688 8.28438 15.7188V19H6.31563V15.7188C4.65938 15.4688 3.2375 14.7188 2.05 13.4688C0.89375 12.1875 0.315625 10.7031 0.315625 9.01562H2.00313C2.00313 10.4844 2.51875 11.7031 3.55 12.6719C4.6125 13.6094 5.8625 14.0781 7.3 14.0781C8.7375 14.0781 9.97188 13.6094 11.0031 12.6719C12.0656 11.7031 12.5969 10.4844 12.5969 9.01562ZM6.08125 2.92188V9.10938C6.08125 9.42188 6.19063 9.70312 6.40938 9.95312C6.65938 10.1719 6.95625 10.2812 7.3 10.2812C7.6125 10.2812 7.87813 10.1719 8.09688 9.95312C8.34688 9.73438 8.47188 9.45312 8.47188 9.10938L8.51875 2.92188C8.51875 2.57812 8.39375 2.29688 8.14375 2.07812C7.89375 1.82812 7.6125 1.70312 7.3 1.70312C6.9875 1.70312 6.70625 1.82812 6.45625 2.07812C6.20625 2.29688 6.08125 2.57812 6.08125 2.92188ZM9.40938 11.125C8.81563 11.7188 8.1125 12.0156 7.3 12.0156C6.4875 12.0156 5.78438 11.7188 5.19063 11.125C4.59688 10.5312 4.3 9.82812 4.3 9.01562V3.01562C4.3 2.20312 4.59688 1.5 5.19063 0.90625C5.78438 0.3125 6.4875 0.015625 7.3 0.015625C8.1125 0.015625 8.81563 0.3125 9.40938 0.90625C10.0031 1.5 10.3 2.20312 10.3 3.01562V9.01562C10.3 9.82812 10.0031 10.5312 9.40938 11.125Z" fill="white"/>
</svg>
