<svg width="22" height="20" viewBox="0 0 22 20" fill="none" xmlns="http://www.w3.org/2000/svg">
<path d="M19.3844 4.7113C19.2417 3.74878 18.4103 3.00781 17.4087 3.00781H4.59131C3.58972 3.00781 2.75827 3.74878 2.61575 4.7113C1.7225 4.72504 1 5.45563 1 6.35193V7.64542C1 7.80807 1.13184 7.93991 1.29449 7.93991C1.45715 7.93991 1.58899 7.80807 1.58899 7.64542V6.35193C1.58899 5.77179 2.0611 5.29968 2.64124 5.29968H19.3588C19.9389 5.29968 20.411 5.77179 20.411 6.35193V13.874C20.411 14.0367 20.5428 14.1685 20.7055 14.1685C20.8682 14.1685 21 14.0367 21 13.874V6.35193C21 5.45563 20.2775 4.72504 19.3844 4.7113ZM3.2139 4.71069C3.3497 4.07501 3.91565 3.5968 4.59131 3.5968H17.4087C18.0844 3.5968 18.6505 4.07501 18.7861 4.71069H3.2139Z" fill="black" stroke="black" stroke-width="0.2"/>
<path d="M20.7055 13.7579C20.5428 13.7579 20.411 13.8897 20.411 14.0524V15.3404C20.411 15.9205 19.9391 16.3925 19.3588 16.3925H14.7976C14.4045 16.3925 14.0473 16.1761 13.8653 15.8277L13.4574 15.0477L13.4564 15.0454L12.4546 13.1294C12.3835 12.9934 12.2955 12.8704 12.1935 12.7624C11.8884 12.4381 11.4599 12.2483 11 12.2483C10.5018 12.2483 10.0405 12.4713 9.7326 12.8463C9.66165 12.9328 9.59879 13.0274 9.54553 13.1294L8.54364 15.0454L8.54257 15.0479L8.13486 15.8277C7.95267 16.1761 7.59546 16.3925 7.20239 16.3925H2.64124C2.0611 16.3925 1.58899 15.9205 1.58899 15.3404V7.82379C1.58899 7.66113 1.45715 7.5293 1.29449 7.5293C1.13184 7.5293 1 7.66113 1 7.82379V15.3404C1 16.2454 1.73624 16.9816 2.64124 16.9816H7.20239C7.81549 16.9816 8.37274 16.6439 8.65686 16.1007L8.98309 15.4763H13.0169L13.3431 16.1007C13.6273 16.6439 14.1845 16.9816 14.7976 16.9816H19.3588C20.2638 16.9816 21 16.2454 21 15.3404V14.0524C21 13.8899 20.8682 13.7579 20.7055 13.7579ZM9.29102 14.8873L10.0675 13.402C10.1008 13.3384 10.1397 13.2794 10.183 13.2253C10.3799 12.9794 10.673 12.8373 11 12.8373C11.3242 12.8373 11.6151 12.9768 11.8119 13.2186C11.8574 13.2745 11.8978 13.3358 11.9325 13.402L12.709 14.8873H9.29102Z" fill="black" stroke="black" stroke-width="0.2"/>
<path d="M8.26239 10.2734C8.26239 8.98651 7.21548 7.93945 5.92856 7.93945C4.64163 7.93945 3.59473 8.98651 3.59473 10.2734C3.59473 11.5602 4.64163 12.6073 5.92856 12.6073C7.21548 12.6073 8.26239 11.5602 8.26239 10.2734ZM4.18372 10.2734C4.18372 9.31122 4.96649 8.52844 5.92856 8.52844C6.89062 8.52844 7.6734 9.31122 7.6734 10.2734C7.6734 11.2355 6.89062 12.0183 5.92856 12.0183C4.96649 12.0183 4.18372 11.2355 4.18372 10.2734Z" fill="black" stroke="black" stroke-width="0.2"/>
<path d="M18.3679 10.2734C18.3679 8.98651 17.321 7.93945 16.034 7.93945C14.7471 7.93945 13.7002 8.98651 13.7002 10.2734C13.7002 11.5602 14.7471 12.6073 16.034 12.6073C17.321 12.6073 18.3679 11.5602 18.3679 10.2734ZM14.2892 10.2734C14.2892 9.31122 15.072 8.52844 16.034 8.52844C16.9961 8.52844 17.7789 9.31122 17.7789 10.2734C17.7789 11.2355 16.9961 12.0183 16.034 12.0183C15.072 12.0183 14.2892 11.2355 14.2892 10.2734Z" fill="black" stroke="black" stroke-width="0.2"/>
</svg>
