<svg width="26" height="29" viewBox="0 0 26 29" fill="none" xmlns="http://www.w3.org/2000/svg">
<path d="M13.0665 5.99886C13.6211 5.98134 14.0863 5.77094 14.462 5.36764C14.8378 4.96434 15.0167 4.49093 14.9988 3.9474C14.9809 3.40376 14.7751 2.93913 14.3815 2.55346C13.9879 2.16773 13.5138 1.98363 12.9591 2.00114C12.4045 2.01866 11.9393 2.22906 11.5636 2.63236C11.1879 3.03566 11 3.50907 11 4.0526C11 4.59613 11.2057 5.06082 11.6173 5.44654C12.0288 5.83227 12.5119 6.01637 13.0665 5.99886Z" stroke="black" stroke-width="0.9" stroke-linecap="square" stroke-linejoin="round"/>
<path d="M19.7461 13.0648L16.7804 11.3064L14.0213 7.62467C13.5358 7.03851 12.9825 7.17927 12.2729 7.17927C11.7874 7.17927 10.6675 6.77607 10.2193 7.17903L6.5 10.9972C6.38797 11.1437 6.32838 11.429 6.29102 11.6121L6 15.9971C6 16.4971 6.61423 16.9718 7.24329 16.9113C7.87236 16.8509 8.15821 16.2519 8.19557 16.0321L8.5 11.9972L9.93207 11.0866L8.69972 21.1975L6.51508 25.9782C6.44041 26.198 6.40305 26.399 6.40305 26.5828C6.40305 26.9851 6.54309 27.3246 6.82317 27.5994C7.10325 27.8741 7.4487 27.9931 7.85947 27.9566C8.41963 27.9566 8.8304 27.6995 9.09183 27.1873L11.4445 22.0218C11.4445 21.985 11.4632 21.921 11.5005 21.8295C11.5379 21.7377 11.5753 21.6553 11.6126 21.5822C11.6499 21.5088 11.6686 21.4355 11.6686 21.3624L11.9487 18.8895L14.3574 27.0224C14.6188 27.6818 15.0856 27.9932 15.7578 27.9566C16.1312 27.9566 16.458 27.8192 16.738 27.5444C17.0181 27.2697 17.1582 26.9302 17.1582 26.5278C17.1582 26.4906 17.1488 26.4454 17.1302 26.3905C17.1115 26.3355 17.1022 26.2896 17.1022 26.253L13.7412 14.9881L14.1333 11.3064L15.0856 12.79C15.1602 12.8999 15.2536 12.9915 15.3657 13.0648C15.3657 13.0648 18 14.4971 19 14.9971C19.5 14.9971 19.7669 14.8663 20 14.4971C20.3033 14.0167 20.0448 13.2479 19.7461 13.0648Z" stroke="black" stroke-width="0.9" stroke-linecap="square" stroke-linejoin="round"/>
</svg>
